PathFileType	4	(X/Y/Z)	D:\TRACE\spotREDO_2-26-24\spot_Both_Motion_3_8-v60.trc
DataRate	CameraRate	NumFrames	NumMarkers	Units	OrigDataRate	OrigDataStartFrame	OrigNumFrames
100.00	100.00	      21	9	mm	100.00	2626	      7000
Frame#	Time	front left toe			Front right toe			aft left toe			aft right toe			Arm			FL body			FR body			AL Body			AR Body			
		X1	Y1	Z1	X2	Y2	Z2	X3	Y3	Z3	X4	Y4	Z4	X5	Y5	Z5	X6	Y6	Z6	X7	Y7	Z7	X8	Y8	Z8	X9	Y9	Z9	

2626	26.250	-171.27629	69.34792	-355.73911	289.48596	88.21862	-498.95273	-120.29081	-0.15267	156.80023	298.87109	15.26907	130.83505	60.73715	824.07806	-677.42462	-50.50270	651.02075	-457.78534	104.57783	657.84985	-464.61560	-15.36949	525.10577	416.43079	131.88197	520.58154	411.82544	
2627	26.260	-172.22430	69.23763	-354.48834	289.29797	88.58807	-499.18732	-120.51109	-0.32377	156.69914	297.73495	15.46638	131.46815	60.86400	824.80566	-678.16309	-52.77771	651.98730	-457.05972	103.24450	657.81274	-463.74454	-18.08080	526.95203	417.48218	129.35591	521.34857	412.76059	
2628	26.270	-172.45499	69.07725	-354.35516	289.28607	88.49088	-498.61050	-120.18199	0.23897	156.47134	298.30255	16.01063	132.03685	61.44036	825.28302	-679.54205	-54.79237	652.61041	-456.50278	101.06335	657.60327	-463.12103	-21.07367	529.07007	418.39877	126.27924	523.50781	413.84946	
2629	26.280	-172.16997	68.56276	-354.58707	289.18716	88.52525	-499.15451	-120.43172	0.18796	156.44276	298.24982	16.07615	131.77165	62.76072	825.65051	-680.32623	-56.62152	653.24414	-456.11624	99.97726	657.50708	-462.46088	-23.37942	531.05542	419.19391	123.68745	525.04126	414.67679	
2630	26.290	-172.36557	68.41820	-354.72052	289.29123	88.22468	-499.21991	-120.70687	-0.14516	156.26297	298.35922	16.09155	131.91310	63.09194	826.54724	-681.27985	-58.14422	653.61505	-455.70105	97.00270	657.74548	-462.24265	-25.51502	532.97070	419.69962	121.99382	526.13928	415.23074	
2631	26.300	-172.43793	68.47196	-354.91602	289.48837	88.22948	-499.24106	-120.70483	-0.00717	156.00542	297.24402	15.95615	131.58340	63.35736	827.41034	-682.75757	-59.41092	653.76123	-455.52280	95.89597	657.70490	-461.98993	-27.71406	534.94843	419.91052	119.83152	527.89667	415.54776	
2632	26.310	-172.40239	68.34846	-355.09372	289.53284	88.27193	-499.31989	-120.70898	0.19412	155.70850	297.04755	16.08386	131.46100	63.19226	828.51648	-683.32343	-60.63307	653.85242	-455.62643	94.78371	657.64825	-461.91672	-30.14980	536.61652	420.12805	117.32446	530.14435	416.36276	
2633	26.320	-172.48723	68.11398	-355.17343	289.33817	88.24293	-499.36786	-120.79211	0.09389	155.57335	297.03278	16.21571	131.29503	62.69090	829.43323	-684.00055	-61.57026	654.01257	-455.74908	93.38560	658.03369	-462.25153	-31.19673	537.93042	420.06290	116.09240	530.96088	416.38739	
2634	26.330	-172.51372	67.76374	-355.37622	289.89758	88.45673	-498.90005	-120.78067	-0.08222	155.40623	296.90912	16.37465	131.12445	61.37120	830.23615	-684.83960	-62.77261	654.12390	-456.06870	92.79506	658.18060	-462.19092	-33.17307	539.37323	420.04523	114.33104	532.32678	416.20377	
2635	26.340	-172.58200	67.43730	-355.47528	289.78906	88.41763	-499.39575	-120.78917	-0.03277	155.20662	296.74469	16.48212	130.76366	60.29830	831.15112	-685.15167	-63.52270	654.28693	-456.27264	92.04063	658.27344	-462.43893	-34.41886	540.39240	419.81342	112.94266	533.57196	415.99481	
2636	26.350	-172.63524	67.16956	-355.53119	289.47330	88.11610	-499.44006	-120.81397	0.22289	154.98396	296.74448	16.66383	130.66924	59.17172	831.75787	-685.46716	-64.62215	654.49615	-456.85947	90.76537	658.57526	-463.02243	-35.07860	541.40063	419.31851	111.97536	534.97644	415.84698	
2637	26.360	-172.66902	66.98125	-355.68445	289.45773	87.91290	-499.65036	-120.71322	0.48942	154.70317	296.75293	16.76955	130.39618	58.29911	832.07031	-685.67566	-65.55826	654.71472	-457.36948	89.94618	659.02667	-463.44138	-35.79375	542.60474	419.12106	111.48978	535.84656	415.45969	
2638	26.370	-172.78876	66.66412	-355.71207	289.36502	87.67153	-499.87015	-120.66713	0.56943	154.64235	296.76062	16.80197	130.26692	57.38014	832.48444	-685.97809	-66.87636	655.02710	-457.98633	88.94480	659.22418	-464.15121	-36.29428	543.35016	418.72617	110.91055	536.89368	414.35922	
2639	26.380	-172.95953	66.21159	-355.70474	289.33319	87.48472	-500.14853	-120.66779	0.57854	154.60233	296.86304	16.70882	129.69585	57.10923	832.43597	-686.03436	-67.83794	654.75397	-458.39001	87.86214	659.42633	-464.74506	-36.68349	544.06958	418.15491	111.14521	537.68304	414.19781	
2640	26.390	-173.06366	65.71706	-355.86502	289.28040	87.35004	-500.31921	-120.73628	0.61971	154.61639	297.18964	17.03226	129.43999	57.03131	832.31592	-686.06128	-69.17510	654.79498	-459.24573	86.84314	659.63306	-465.67111	-36.93193	544.73468	417.49081	110.47558	538.57153	413.21982	
2641	26.400	-173.21146	65.53533	-355.99884	289.21545	87.17650	-500.52444	-120.72666	0.75836	154.54939	297.47369	17.20124	129.20973	57.41690	831.99170	-685.99371	-70.09556	654.98529	-459.73477	85.87193	660.00446	-466.33704	-36.23685	545.27216	416.64935	110.79520	539.29596	412.39612	
2642	26.410	-173.30211	65.44062	-356.10934	289.15414	87.09042	-500.81592	-120.68492	0.90154	154.51137	297.57303	17.13028	128.93790	57.96773	831.67712	-685.94244	-71.10587	655.30884	-460.77505	84.69033	660.35974	-467.58456	-36.62822	546.18475	416.04605	111.11145	540.01349	411.44467	
2643	26.420	-173.42265	65.25998	-356.35849	289.16898	87.25399	-500.88058	-120.61970	0.94272	154.41983	297.69244	17.16411	128.76541	58.56116	831.45099	-685.86133	-71.74255	655.52472	-461.42563	84.20137	660.54413	-468.36481	-36.56608	546.80408	415.30658	110.69223	540.87762	410.45172	
2644	26.430	-173.39960	65.04801	-356.53925	289.26468	87.03034	-501.00974	-120.60370	1.02744	154.25790	297.79202	17.05357	128.49831	58.79381	831.28491	-685.87146	-72.17725	655.57587	-462.52011	83.49128	660.82733	-469.56985	-36.51297	547.26715	414.27527	110.77881	541.18793	409.59204	
2645	26.440	-173.25888	64.75459	-356.66986	289.20145	86.60358	-501.24533	-120.65271	1.12289	154.13345	297.74121	17.02282	128.32986	59.04679	831.20447	-686.00787	-72.19331	655.61438	-463.35648	83.36737	660.86633	-470.24271	-36.97253	547.99579	413.49136	110.50243	542.10577	408.62283	
2646	26.450	-173.22707	64.61932	-356.91519	289.28052	86.06419	-501.61728	-120.65285	1.20769	153.84703	297.71588	17.03864	128.21384	59.34149	831.11853	-686.21667	-71.98463	655.68256	-464.52310	83.17391	661.16345	-471.53778	-37.30746	548.67944	412.43869	110.28635	542.68872	407.82657	
